<?xml version="1.0" encoding="UTF-8" standalone="no"?>
<svg
        width="55"
        height="20"
        viewBox="0 0 55 20"
        fill="none"
        version="1.1"
        id="svg51"
        xmlns="http://www.w3.org/2000/svg"
>
  <defs
     id="defs55" />
  <path
     d="m 9.7771984,4.9472586 c -1.692209,2.1101785 -1.886146,4.7705656 -1.058889,6.9751174 0.882251,2.351699 2.3475666,3.962676 4.8110146,4.691525 0.153454,0.04538 1.050296,0.481925 1.419825,0.861075 0.296915,0.3044 1.475933,1.633244 1.691163,1.536867 0.137954,-0.0317 -0.559097,-1.634505 -0.695832,-2.066026 -0.233783,-0.737311 -0.482792,-1.762064 -1.365928,-2.023288 -1.825369,-0.540084 -3.348371,-2.055326 -3.995688,-3.780233 -0.6471166,-1.724894 -0.507092,-3.5551433 0.980785,-5.1516993 1.606088,-1.7235307 2.971697,-2.2873577 4.281137,-2.321455 1.30954,-0.034089 2.655919,0.5152524 4.048809,1.3744122 2.785671,1.7184152 5.496604,4.712064 8.75326,5.1544801 0.0377,0.0051 0.0756,0.0079 0.113686,0.0086 l 4.295857,0.06716 C 33.26528,10.064202 33.422303,9.8727682 33.527215,9.7069949 33.717868,9.4055426 33.750433,9.2151997 33.730966,9.0403243 33.706986,8.8237322 33.532964,8.522416 33.163863,8.1707465 l -0.0028,0.00785 -4.277412,-0.066883 C 26.768886,7.7986946 24.002702,5.1366411 20.920433,3.2351994 19.370725,2.2791612 17.675941,1.5249511 15.811279,1.5734732 13.946509,1.6220912 12.00478,2.5270286 10.135737,4.5327041 10.009458,4.6682332 9.8901614,4.8065762 9.7772954,4.947159 Z m 24.0824466,1.9039959 -0.0049,0.00676 c 0.688697,0.5646622 1.163548,1.1958506 1.253196,2.003735 0.06197,0.5586894 -0.105188,1.1309509 -0.426825,1.6395535 -0.242308,0.383199 -0.568755,0.747009 -0.982003,1.114021 0.217743,0.352742 0.482454,0.695147 0.791172,1.028963 0.937376,1.014409 2.265757,1.916028 3.719384,2.668572 1.649697,0.853984 3.446156,1.513327 5.008428,1.992219 2.172352,-4.37971 2.22764,-9.8226957 0.486459,-15.2986302 -1.593992,0.3627394 -3.515079,0.9115255 -5.289402,1.6812403 -1.52225,0.6605503 -2.925899,1.4836461 -3.904707,2.4346417 -0.244555,0.2377878 -0.462193,0.4800127 -0.650785,0.7287518 z M 45.077161,1.7219534 c 1.739169,5.5929008 1.73002,11.2718556 -0.498621,15.9737136 0.561166,0.149706 1.066058,0.271194 1.48451,0.362788 0.219983,-0.0925 0.470236,-0.294247 0.732139,-0.663231 0.310734,-0.437731 0.614551,-1.078377 0.870799,-1.85017 0.512436,-1.543487 0.842137,-3.604402 0.920732,-5.6672125 0.07861,-2.0629162 -0.0948,-4.1360117 -0.52951,-5.7004242 C 47.643705,2.6895016 47.014113,1.7762302 46.327312,1.5184657 45.989448,1.5636187 45.562557,1.6318631 45.07726,1.721962 Z"
     fill="#aa8833"
     id="path49"
     style="stroke-width:1.02353" />
</svg>
