<?xml version="1.0" encoding="UTF-8" standalone="no"?>
<svg
        width="55"
        height="20"
        viewBox="0 0 55 20"
        fill="none"
        version="1.1"
        id="svg51"
        xmlns="http://www.w3.org/2000/svg"
>
  <defs
     id="defs55" />
  <path
     d="m 47.071474,4.9472586 c 1.692209,2.1101785 1.886146,4.7705656 1.058889,6.9751174 -0.882251,2.351699 -2.347567,3.962676 -4.811015,4.691525 -0.153454,0.04538 -1.050296,0.481925 -1.419825,0.861075 -0.296915,0.3044 -1.475933,1.633244 -1.691163,1.536867 -0.137954,-0.0317 0.559097,-1.634505 0.695832,-2.066026 0.233783,-0.737311 0.482792,-1.762064 1.365928,-2.023288 1.825369,-0.540084 3.348371,-2.055326 3.995688,-3.780233 C 46.912925,9.417402 46.7729,7.5871527 45.285023,5.9905967 43.678935,4.267066 42.313326,3.703239 41.003886,3.6691417 c -1.30954,-0.034089 -2.655919,0.5152524 -4.048809,1.3744122 -2.785671,1.7184152 -5.496604,4.712064 -8.75326,5.1544801 -0.0377,0.0051 -0.0756,0.0079 -0.113686,0.0086 l -4.295857,0.06716 C 23.583392,10.064202 23.426369,9.8727682 23.321457,9.7069949 23.130804,9.4055426 23.098239,9.2151997 23.117706,9.0403243 23.141686,8.8237322 23.315708,8.522416 23.684809,8.1707465 l 0.0028,0.00785 4.277412,-0.066883 c 2.114765,-0.3130189 4.880949,-2.9750724 7.963218,-4.8765141 1.549708,-0.9560382 3.244492,-1.7102483 5.109154,-1.6617262 1.86477,0.048618 3.806499,0.9535554 5.675542,2.9592309 0.126279,0.1355291 0.245576,0.2738721 0.358442,0.4144549 z m -24.082447,1.9039959 0.0049,0.00676 c -0.688697,0.5646622 -1.163548,1.1958506 -1.253196,2.003735 -0.06197,0.5586894 0.105188,1.1309509 0.426825,1.6395537 0.242308,0.383199 0.568755,0.747009 0.982003,1.114021 -0.217743,0.352742 -0.482454,0.695147 -0.791172,1.028963 -0.937376,1.014409 -2.265757,1.916028 -3.719384,2.668572 -1.649697,0.853984 -3.446156,1.513327 -5.008428,1.992219 -2.172352,-4.37971 -2.22764,-9.8226959 -0.486459,-15.2986304 1.593992,0.3627394 3.515079,0.9115255 5.289402,1.6812403 1.52225,0.6605503 2.925899,1.4836461 3.904707,2.4346417 0.244555,0.2377878 0.462193,0.4800127 0.650785,0.7287518 z M 11.771511,1.7219534 c -1.739169,5.5929008 -1.73002,11.2718556 0.498621,15.9737136 -0.561166,0.149706 -1.066058,0.271194 -1.48451,0.362788 -0.219983,-0.0925 -0.470236,-0.294247 -0.732139,-0.663231 C 9.742749,16.957493 9.4389325,16.316847 9.1826848,15.545054 8.6702484,14.001567 8.3405479,11.940652 8.2619524,9.8778415 8.1833477,7.8149253 8.3567558,5.7418298 8.7914621,4.1774173 9.2049672,2.6895016 9.8345595,1.7762302 10.52136,1.5184657 c 0.337864,0.045153 0.764755,0.1133974 1.250052,0.2034963 z"
     fill="#aa8833"
     id="path49"
     style="stroke-width:1.02353" />
</svg>
