<?xml version="1.0" encoding="UTF-8" standalone="no"?>
<svg
   width="40"
   height="38.82135"
   viewBox="0 0 40 38.82135"
   fill="none"
   version="1.1"
   id="svg40"
   sodipodi:docname="pistol.svg"
   inkscape:version="1.1.2 (b8e25be8, 2022-02-05)"
   xmlns:inkscape="http://www.inkscape.org/namespaces/inkscape"
   xmlns:sodipodi="http://sodipodi.sourceforge.net/DTD/sodipodi-0.dtd"
   xmlns="http://www.w3.org/2000/svg"
   xmlns:svg="http://www.w3.org/2000/svg">
  <defs
     id="defs44" />
  <sodipodi:namedview
     id="namedview42"
     pagecolor="#505050"
     bordercolor="#eeeeee"
     borderopacity="1"
     inkscape:pageshadow="0"
     inkscape:pageopacity="0"
     inkscape:pagecheckerboard="0"
     showgrid="false"
     fit-margin-top="0"
     fit-margin-left="0"
     fit-margin-right="0"
     fit-margin-bottom="0"
     inkscape:zoom="5.7766602"
     inkscape:cx="19.301811"
     inkscape:cy="34.016195"
     inkscape:window-width="1920"
     inkscape:window-height="1027"
     inkscape:window-x="0"
     inkscape:window-y="25"
     inkscape:window-maximized="1"
     inkscape:current-layer="svg40" />
  <path
     d="M 11.244578,0 8.1596328,3.5966024 25.763489,18.696654 c 0.325473,0.27916 0.64442,0.565956 0.956407,0.860131 -0.772761,0.913571 -1.250073,1.81849 -1.416161,2.738169 -0.169231,0.936983 0.0045,1.858528 0.405211,2.699997 0.754605,1.584966 2.240496,2.973983 4.043296,4.530787 -0.872859,1.445258 -2.268237,2.600497 -3.639525,3.607461 -0.878371,0.645099 -1.052347,1.293591 -0.911369,2.067878 0.140813,0.774457 0.723901,1.671488 1.590142,2.365785 0.866235,0.694296 1.992044,1.179244 3.113097,1.245917 1.121225,0.06667 2.233201,-0.248029 3.249327,-1.207916 4.958901,-4.684491 4.363682,-10.723646 2.457225,-13.983832 l -0.981938,-1.679291 1.876,0.514891 c 1.735021,0.475871 2.626878,0.105778 3.095454,-0.513364 0.378324,-0.499877 0.516842,-1.328113 0.288745,-2.307849 -0.784891,0.249048 -1.723825,0.466116 -2.768706,0.452629 -1.422521,-0.0185 -3.032767,-0.49326 -4.566584,-1.808905 L 11.244663,1.6956771e-4 Z M 28.755371,0 21.217346,6.4659117 24.856192,9.5872376 31.840306,3.5964328 28.755456,8.4824024e-5 Z M 15.143837,11.675812 7.4457381,18.278973 c -1.5336459,1.315644 -3.143801,1.790328 -4.5665841,1.80882 -1.0447102,0.01357 -1.98364392,-0.203582 -2.76853473,-0.45263 -0.22818234,0.979736 -0.08949351,1.807973 0.28874509,2.30785 0.468661,0.619226 1.36060354,0.98932 3.09553954,0.513193 l 1.8760047,-0.51472 -0.982114,1.679292 c -1.9064517,3.2601 -2.5015052,9.299424 2.4573962,13.983831 1.0160406,0.959886 2.1280316,1.274589 3.2491712,1.207916 1.121139,-0.06667 2.247028,-0.551536 3.113097,-1.245918 0.866321,-0.694297 1.449244,-1.591328 1.590223,-2.365785 0.140978,-0.774457 -0.03309,-1.422779 -0.911364,-2.067792 -1.371293,-1.00688 -2.766587,-2.162204 -3.63944,-3.607376 1.802709,-1.55672 3.288686,-2.945822 4.043295,-4.530703 0.400713,-0.841469 0.574267,-1.763014 0.405126,-2.699997 -0.166088,-0.919679 -0.643405,-1.824598 -1.416165,-2.738169 0.311992,-0.294175 0.630932,-0.580971 0.956492,-0.860131 l 4.546144,-3.899431 -3.638763,-3.121241 z m -2.982297,9.014412 c 0.585634,0.717878 0.875398,1.337359 0.974648,1.88635 0.106198,0.587672 0.01466,1.125296 -0.276534,1.736888 -0.509803,1.071177 -1.699564,2.294362 -3.281898,3.692203 C 9.52474,27.821508 9.4810528,27.634807 9.4469552,27.44624 9.0923808,25.465224 9.8430888,23.229986 12.16154,20.690224 Z m 15.676864,0 c 2.318286,2.539677 3.069415,4.775 2.71476,6.756016 -0.03419,0.188652 -0.07787,0.375353 -0.130886,0.559594 -1.582424,-1.397925 -2.7721,-2.62111 -3.282159,-3.692456 -0.29112,-0.611592 -0.382561,-1.149132 -0.276529,-1.736804 0.09924,-0.548991 0.389094,-1.168472 0.974644,-1.88652 z"
     fill="#000000"
     id="path38"
     style="stroke-width:0.0848256" />
</svg>
